<?xml version="1.0" encoding="utf-8"?>
<!-- Generator: Adobe Illustrator 16.0.0, SVG Export Plug-In . SVG Version: 6.00 Build 0)  -->
<!DOCTYPE svg PUBLIC "-//W3C//DTD SVG 1.1//EN" "http://www.w3.org/Graphics/SVG/1.1/DTD/svg11.dtd">
<svg version="1.1" id="Layer_1" xmlns="http://www.w3.org/2000/svg" xmlns:xlink="http://www.w3.org/1999/xlink" x="0px" y="0px"
	 width="52.75px" height="51.875px" viewBox="0 0 52.75 51.875" enable-background="new 0 0 52.75 51.875" xml:space="preserve">
<rect x="0.135" y="-0.035" fill="#3E3A39" width="52.718" height="51.945"/>
<path fill="#FFFFFF" d="M35.886,15.43h-18.75c-1.34,0-2.403,1.063-2.403,2.402v11.437c0,1.339,1.063,2.402,2.403,2.402h4.155v4.773
	l3.538-4.773h11.023c1.339,0,2.403-1.063,2.403-2.402V17.832C38.289,16.493,37.19,15.43,35.886,15.43z M33.481,27.414H19.676
	c-0.344,0-0.618-0.276-0.618-0.619s0.274-0.618,0.618-0.618h13.805c0.344,0,0.618,0.275,0.618,0.618S33.825,27.414,33.481,27.414z
	 M33.481,23.979H19.676c-0.344,0-0.618-0.274-0.618-0.618c0-0.343,0.274-0.617,0.618-0.617h13.805c0.344,0,0.618,0.274,0.618,0.617
	C34.1,23.705,33.825,23.979,33.481,23.979z M33.481,20.546H19.676c-0.344,0-0.618-0.275-0.618-0.619
	c0-0.343,0.274-0.618,0.618-0.618h13.805c0.344,0,0.618,0.275,0.618,0.618C34.1,20.271,33.825,20.546,33.481,20.546z"/>
</svg>
