<?xml version="1.0" encoding="utf-8"?>
<!-- Generator: Adobe Illustrator 16.0.0, SVG Export Plug-In . SVG Version: 6.00 Build 0)  -->
<!DOCTYPE svg PUBLIC "-//W3C//DTD SVG 1.1//EN" "http://www.w3.org/Graphics/SVG/1.1/DTD/svg11.dtd">
<svg version="1.1" id="Layer_1" xmlns="http://www.w3.org/2000/svg" xmlns:xlink="http://www.w3.org/1999/xlink" x="0px" y="0px"
	 width="52.75px" height="51.875px" viewBox="0 0 52.75 51.875" enable-background="new 0 0 52.75 51.875" xml:space="preserve">
<g>
	<path fill="#3E3A39" d="M52.749,0H6c0,0-6,0-6,6v39.946c0,0,0,6,6,6h46.75V0z"/>
</g>
<path fill="#FFFFFF" d="M34.489,16.072c-3.354-1.088-6.961,0.727-8.113,4.057c-1.151-3.334-4.758-5.145-8.112-4.057
	c-3.394,1.105-5.244,4.756-4.142,8.164c1.059,3.25,10.883,11.953,12.142,11.953c1.257,0,11.301-8.693,12.361-11.953
	C39.73,20.822,37.879,17.169,34.489,16.072"/>
</svg>
