<?xml version="1.0" encoding="utf-8"?>
<!-- Generator: Adobe Illustrator 16.0.0, SVG Export Plug-In . SVG Version: 6.00 Build 0)  -->
<!DOCTYPE svg PUBLIC "-//W3C//DTD SVG 1.1//EN" "http://www.w3.org/Graphics/SVG/1.1/DTD/svg11.dtd">
<svg version="1.1" id="Layer_1" xmlns="http://www.w3.org/2000/svg" xmlns:xlink="http://www.w3.org/1999/xlink" x="0px" y="0px"
	 width="58.61px" height="41.446px" viewBox="0 0 58.61 41.446" enable-background="new 0 0 58.61 41.446" xml:space="preserve">
<g>
	<defs>
		<rect id="SVGID_1_" x="17" y="8.861" width="24.522" height="23.029"/>
	</defs>
	<clipPath id="SVGID_2_">
		<use xlink:href="#SVGID_1_"  overflow="visible"/>
	</clipPath>
	<path clip-path="url(#SVGID_2_)" fill="#FFFFFF" d="M36.249,14.477H22.443c-0.343,0-0.617-0.275-0.617-0.619
		c0-0.343,0.274-0.617,0.617-0.617h13.806c0.344,0,0.619,0.274,0.619,0.617C36.868,14.202,36.592,14.477,36.249,14.477
		 M36.249,17.911H22.443c-0.343,0-0.617-0.274-0.617-0.618c0-0.342,0.274-0.617,0.617-0.617h13.806c0.344,0,0.619,0.275,0.619,0.617
		C36.868,17.636,36.592,17.911,36.249,17.911 M36.249,21.345H22.443c-0.343,0-0.617-0.276-0.617-0.619s0.274-0.618,0.617-0.618
		h13.806c0.344,0,0.619,0.275,0.619,0.618S36.592,21.345,36.249,21.345"/>
	<path clip-path="url(#SVGID_2_)" fill="none" stroke="#FFFFFF" stroke-miterlimit="10" d="M38.653,9.361h-18.75
		c-1.34,0-2.402,1.063-2.402,2.402V23.2c0,1.339,1.062,2.402,2.402,2.402h4.156v4.773l3.537-4.773H38.62
		c1.338,0,2.402-1.063,2.402-2.402V11.763C41.056,10.424,39.958,9.361,38.653,9.361z"/>
</g>
</svg>
