<?xml version="1.0" encoding="utf-8"?>
<!-- Generator: Adobe Illustrator 16.0.0, SVG Export Plug-In . SVG Version: 6.00 Build 0)  -->
<!DOCTYPE svg PUBLIC "-//W3C//DTD SVG 1.1//EN" "http://www.w3.org/Graphics/SVG/1.1/DTD/svg11.dtd">
<svg version="1.1" id="Layer_1" xmlns="http://www.w3.org/2000/svg" xmlns:xlink="http://www.w3.org/1999/xlink" x="0px" y="0px"
	 width="58.61px" height="41.446px" viewBox="0 0 58.61 41.446" enable-background="new 0 0 58.61 41.446" xml:space="preserve">
<g>
	<defs>
		<rect id="SVGID_1_" x="18.202" y="12.135" width="23.637" height="19.413"/>
	</defs>
	<clipPath id="SVGID_2_">
		<use xlink:href="#SVGID_1_"  overflow="visible"/>
	</clipPath>
	<g clip-path="url(#SVGID_2_)">
		<path fill="#FFFFFF" d="M29.921,31.547c-1.628,0-10.478-8.244-11.408-11.097c-1.078-3.334,0.745-6.925,4.062-8.006
			c0.635-0.206,1.292-0.31,1.953-0.31c2.291,0,4.372,1.236,5.494,3.172c1.122-1.936,3.204-3.171,5.495-3.171
			c0.661,0,1.317,0.104,1.95,0.31c1.608,0.521,2.917,1.64,3.683,3.152c0.766,1.511,0.899,3.234,0.375,4.853
			C40.516,23.55,31.384,31.547,29.921,31.547z M24.529,13.212c-0.548,0-1.093,0.086-1.62,0.257
			c-2.753,0.897-4.266,3.879-3.371,6.647c0.851,2.61,9.083,9.964,10.383,10.346c1.332-0.381,9.729-7.737,10.578-10.347
			c0.436-1.345,0.325-2.777-0.312-4.033c-0.635-1.254-1.72-2.182-3.053-2.614c-0.526-0.17-1.07-0.257-1.618-0.257
			c-2.246,0-4.249,1.431-4.985,3.561l-0.51,1.474l-0.509-1.475C28.777,14.643,26.774,13.212,24.529,13.212z"/>
	</g>
</g>
</svg>
