<?xml version="1.0" encoding="utf-8"?>
<!-- Generator: Adobe Illustrator 16.0.0, SVG Export Plug-In . SVG Version: 6.00 Build 0)  -->
<!DOCTYPE svg PUBLIC "-//W3C//DTD SVG 1.1//EN" "http://www.w3.org/Graphics/SVG/1.1/DTD/svg11.dtd">
<svg version="1.1" id="Layer_1" xmlns="http://www.w3.org/2000/svg" xmlns:xlink="http://www.w3.org/1999/xlink" x="0px" y="0px"
	 width="52.354px" height="44.968px" viewBox="0 0 52.354 44.968" enable-background="new 0 0 52.354 44.968" xml:space="preserve">
<g>
	<defs>
		<rect id="SVGID_1_" x="9.206" y="5.514" width="33.941" height="33.94"/>
	</defs>
	<clipPath id="SVGID_2_">
		<use xlink:href="#SVGID_1_"  overflow="visible"/>
	</clipPath>
	<g clip-path="url(#SVGID_2_)">
		<defs>
			<rect id="SVGID_3_" x="9.206" y="5.513" width="33.941" height="33.941"/>
		</defs>
		<clipPath id="SVGID_4_">
			<use xlink:href="#SVGID_3_"  overflow="visible"/>
		</clipPath>
		<g opacity="0.5" clip-path="url(#SVGID_4_)">
			<g>
				<defs>
					<rect id="SVGID_5_" x="0.206" y="-2.486" width="51.941" height="42.94"/>
				</defs>
				<clipPath id="SVGID_6_">
					<use xlink:href="#SVGID_5_"  overflow="visible"/>
				</clipPath>
				<path clip-path="url(#SVGID_6_)" d="M26.177,39.454c9.371,0,16.97-7.598,16.97-16.969c0-9.373-7.599-16.972-16.97-16.972
					c-9.372,0-16.971,7.599-16.971,16.972C9.206,31.856,16.805,39.454,26.177,39.454"/>
			</g>
		</g>
		<path clip-path="url(#SVGID_4_)" fill="#FFFFFF" d="M33.126,27.761H19.244v-7.714H22.3c0.311,0,0.564-0.219,0.637-0.51
			l1.548-2.238h3.603l1.637,2.238c0.074,0.291,0.328,0.51,0.619,0.51h2.801v7.714H33.126z M33.763,18.773h-2.928l-1.857-2.548
			c-0.127-0.182-0.346-0.291-0.563-0.291h-4.312c-0.219,0-0.438,0.109-0.564,0.291l-1.747,2.548h-3.202
			c-0.346,0-0.637,0.291-0.637,0.637v8.988c0,0.346,0.291,0.637,0.637,0.637h15.174c0.347,0,0.638-0.291,0.638-0.637V19.41
			C34.419,19.064,34.128,18.773,33.763,18.773"/>
		<path clip-path="url(#SVGID_4_)" fill="#FFFFFF" d="M26.177,21.593c-1.02,0-1.839,0.818-1.839,1.837
			c0,1.018,0.819,1.838,1.839,1.838c1.018,0,1.838-0.82,1.838-1.838C28.015,22.412,27.194,21.593,26.177,21.593 M26.177,26.651
			c-1.783,0-3.221-1.438-3.221-3.221c0-1.784,1.438-3.221,3.221-3.221c1.782,0,3.219,1.438,3.219,3.221
			C29.396,25.214,27.959,26.651,26.177,26.651"/>
		<path clip-path="url(#SVGID_4_)" fill="#FFFFFF" d="M31.562,20.901c0.241,0,0.438,0.196,0.438,0.438s-0.196,0.436-0.438,0.436
			c-0.24,0-0.438-0.194-0.438-0.436S31.321,20.901,31.562,20.901"/>
	</g>
</g>
</svg>
