<?xml version="1.0" encoding="utf-8"?>
<!-- Generator: Adobe Illustrator 16.0.0, SVG Export Plug-In . SVG Version: 6.00 Build 0)  -->
<!DOCTYPE svg PUBLIC "-//W3C//DTD SVG 1.1//EN" "http://www.w3.org/Graphics/SVG/1.1/DTD/svg11.dtd">
<svg version="1.1" id="Layer_1" xmlns="http://www.w3.org/2000/svg" xmlns:xlink="http://www.w3.org/1999/xlink" x="0px" y="0px"
	 width="52.354px" height="44.968px" viewBox="0 0 52.354 44.968" enable-background="new 0 0 52.354 44.968" xml:space="preserve">
<g>
	<defs>
		<rect id="SVGID_1_" x="4.323" y="0.629" width="43.708" height="43.708"/>
	</defs>
	<clipPath id="SVGID_2_">
		<use xlink:href="#SVGID_1_"  overflow="visible"/>
	</clipPath>
	<g clip-path="url(#SVGID_2_)">
		<defs>
			<rect id="SVGID_3_" x="4.323" y="0.629" width="43.708" height="43.708"/>
		</defs>
		<clipPath id="SVGID_4_">
			<use xlink:href="#SVGID_3_"  overflow="visible"/>
		</clipPath>
		<g opacity="0.5" clip-path="url(#SVGID_4_)">
			<g>
				<defs>
					<rect id="SVGID_5_" x="-4.677" y="-7.371" width="61.708" height="52.708"/>
				</defs>
				<clipPath id="SVGID_6_">
					<use xlink:href="#SVGID_5_"  overflow="visible"/>
				</clipPath>
				<path clip-path="url(#SVGID_6_)" fill="#040000" d="M26.178,0.629c-12.071,0-21.854,9.784-21.854,21.854
					c0,12.071,9.784,21.854,21.854,21.854c12.068,0,21.854-9.783,21.854-21.854C48.031,10.414,38.246,0.629,26.178,0.629"/>
			</g>
		</g>
		<path clip-path="url(#SVGID_4_)" fill="#FFFFFF" d="M33.912,22.484c0,4.272-3.463,7.735-7.734,7.735
			c-4.272,0-7.735-3.463-7.735-7.735c0-4.271,3.463-7.734,7.735-7.734C30.449,14.75,33.912,18.212,33.912,22.484 M35.559,19.498
			c-0.426-0.916-0.605-1.302-1.032-2.218l1.103-2.146c-1.063-1.064-1.021-1.022-2.084-2.088l-2.149,1.099
			c-0.915-0.429-1.3-0.608-2.216-1.036l-0.535-2.353c-1.499-0.132-1.439-0.127-2.938-0.259l-0.94,2.222
			c-0.977,0.261-1.387,0.37-2.363,0.632l-1.923-1.458c-1.234,0.861-1.185,0.827-2.418,1.689l0.708,2.305
			c-0.58,0.827-0.824,1.176-1.405,2.003l-2.409,0.118c-0.391,1.453-0.375,1.396-0.766,2.85l2.024,1.31
			c0.087,1.006,0.124,1.432,0.211,2.438l-1.769,1.639c0.635,1.365,0.61,1.311,1.244,2.674l2.395-0.297
			c0.713,0.715,1.014,1.016,1.727,1.732l-0.301,2.393c1.363,0.637,1.309,0.611,2.672,1.248l1.644-1.766
			c1.006,0.088,1.43,0.127,2.436,0.215l1.308,2.027c1.454-0.389,1.397-0.373,2.85-0.762l0.123-2.408
			c0.83-0.58,1.178-0.822,2.006-1.4l2.306,0.711c0.864-1.232,0.83-1.184,1.694-2.414l-1.454-1.924
			c0.262-0.977,0.373-1.387,0.635-2.361l2.224-0.936c-0.129-1.5-0.125-1.44-0.254-2.939L35.559,19.498z"/>
	</g>
</g>
</svg>
