<?xml version="1.0" encoding="utf-8"?>
<!-- Generator: Adobe Illustrator 16.0.0, SVG Export Plug-In . SVG Version: 6.00 Build 0)  -->
<!DOCTYPE svg PUBLIC "-//W3C//DTD SVG 1.1//EN" "http://www.w3.org/Graphics/SVG/1.1/DTD/svg11.dtd">
<svg version="1.1" id="Layer_1" xmlns="http://www.w3.org/2000/svg" xmlns:xlink="http://www.w3.org/1999/xlink" x="0px" y="0px"
	 width="45.486px" height="61.167px" viewBox="0 0 45.486 61.167" enable-background="new 0 0 45.486 61.167" xml:space="preserve">
<g>
	<defs>
		<rect id="SVGID_1_" x="8.772" y="5.106" width="30.827" height="49.207"/>
	</defs>
	<clipPath id="SVGID_2_">
		<use xlink:href="#SVGID_1_"  overflow="visible"/>
	</clipPath>
	<path clip-path="url(#SVGID_2_)" fill="#FFFFFF" d="M14.917,18.369H9.492c-0.397,0-0.719-0.322-0.719-0.721
		c0-0.396,0.321-0.719,0.719-0.719h5.425c0.397,0,0.721,0.322,0.721,0.719C15.638,18.047,15.314,18.369,14.917,18.369"/>
	<path clip-path="url(#SVGID_2_)" fill="#FFFFFF" d="M12.371,21.248c-0.185,0-0.368-0.071-0.509-0.21l-2.879-2.88
		c-0.281-0.28-0.281-0.736,0-1.018l2.879-2.878c0.279-0.281,0.736-0.281,1.018,0c0.28,0.28,0.28,0.737,0,1.017l-2.369,2.37
		l2.369,2.369c0.28,0.28,0.28,0.737,0,1.018C12.738,21.177,12.556,21.248,12.371,21.248"/>
	<path clip-path="url(#SVGID_2_)" fill="#FFFFFF" d="M28.423,16.931h5.426c0.396,0,0.719,0.322,0.719,0.72s-0.322,0.72-0.719,0.72
		h-5.426c-0.396,0-0.72-0.322-0.72-0.72S28.026,16.931,28.423,16.931"/>
	<path clip-path="url(#SVGID_2_)" fill="#FFFFFF" d="M30.969,14.052c0.185,0,0.368,0.071,0.509,0.21l2.879,2.879
		c0.281,0.281,0.281,0.737,0,1.019l-2.879,2.878c-0.279,0.281-0.735,0.281-1.017,0c-0.28-0.28-0.28-0.737,0-1.018l2.369-2.37
		l-2.369-2.368c-0.28-0.28-0.28-0.737,0-1.018C30.603,14.123,30.785,14.052,30.969,14.052"/>
	<path clip-path="url(#SVGID_2_)" fill="#FFFFFF" d="M20.951,11.251V5.826c0-0.396,0.321-0.719,0.72-0.719
		c0.396,0,0.719,0.322,0.719,0.719v5.425c0,0.397-0.322,0.721-0.719,0.721C21.272,11.972,20.951,11.648,20.951,11.251"/>
	<path clip-path="url(#SVGID_2_)" fill="#FFFFFF" d="M18.072,8.705c0-0.184,0.071-0.368,0.21-0.51l2.879-2.878
		c0.281-0.281,0.737-0.281,1.018,0l2.879,2.878c0.281,0.281,0.281,0.737,0,1.018c-0.28,0.281-0.737,0.281-1.018,0l-2.369-2.369
		l-2.369,2.369c-0.28,0.281-0.737,0.281-1.018,0C18.144,9.072,18.072,8.89,18.072,8.705"/>
	<path clip-path="url(#SVGID_2_)" fill="#FFFFFF" d="M28.961,52.887h-1.704c-5.559,0-8.563-2.539-9.522-4.914L17.11,46.37
		c-0.051-0.197-0.104-0.395-0.157-0.592c-0.328-1.221-0.667-2.48-0.667-4.498v-2.992c0-2.939,0.49-4.334,2.139-5.492v5.25
		c0,0.395,0.317,0.713,0.713,0.713c0.394,0,0.713-0.318,0.713-0.713V18.291c0-1.092,0.75-1.916,1.744-1.916
		c0.992,0,1.74,0.824,1.74,1.916v12.257v4.208v1.652c0,0.395,0.319,0.713,0.713,0.713c0.395,0,0.713-0.318,0.713-0.713v-1.652
		v-4.208c0-1.093,0.75-1.917,1.742-1.917s1.74,0.824,1.74,1.917v1.747v2.461v1.652c0,0.395,0.32,0.713,0.714,0.713
		s0.713-0.318,0.713-0.713v-1.652v-2.461c0-1.093,0.748-1.917,1.741-1.917c0.994,0,1.744,0.824,1.744,1.917v1.754v0.707v1.652
		c0,0.395,0.32,0.713,0.713,0.713c0.395,0,0.713-0.318,0.713-0.713v-1.652v-0.707c0-1.066,0.749-1.84,1.781-1.84
		c0.996,0,1.775,0.875,1.775,1.995l0.035,10.191C38.175,50.663,33.211,52.887,28.961,52.887 M18.425,31.113
		c-2.994,1.719-3.564,3.797-3.564,7.172v2.994c0,2.205,0.38,3.619,0.716,4.867c0.056,0.207,0.11,0.41,0.164,0.615l0.667,1.732
		c0,0.002,0.001,0.002,0.002,0.004c0,0.002,0,0.004,0.001,0.004c1.132,2.811,4.576,5.811,10.847,5.811h1.704
		c6.464,0,10.64-3.893,10.64-9.918v-0.002v-0.002l-0.035-10.189c0-1.885-1.436-3.418-3.203-3.418c-0.723,0-1.373,0.222-1.896,0.602
		c-0.369-1.418-1.576-2.433-3.054-2.433c-0.707,0-1.351,0.235-1.872,0.633c-0.383-1.39-1.579-2.38-3.035-2.38
		c-0.65,0-1.246,0.198-1.742,0.537v-4.476v-1.735v-3.24c0-1.874-1.391-3.342-3.166-3.342c-1.779,0-3.172,1.468-3.172,3.342V31.113z"
		/>
</g>
</svg>
