<?xml version="1.0" encoding="utf-8"?>
<!-- Generator: Adobe Illustrator 16.0.0, SVG Export Plug-In . SVG Version: 6.00 Build 0)  -->
<!DOCTYPE svg PUBLIC "-//W3C//DTD SVG 1.1//EN" "http://www.w3.org/Graphics/SVG/1.1/DTD/svg11.dtd">
<svg version="1.1" id="Layer_1" xmlns="http://www.w3.org/2000/svg" xmlns:xlink="http://www.w3.org/1999/xlink" x="0px" y="0px"
	 width="45.486px" height="61.167px" viewBox="0 0 45.486 61.167" enable-background="new 0 0 45.486 61.167" xml:space="preserve">
<g>
	<defs>
		<rect id="SVGID_1_" x="12" y="7.482" width="24.74" height="42.408"/>
	</defs>
	<clipPath id="SVGID_2_">
		<use xlink:href="#SVGID_1_"  overflow="visible"/>
	</clipPath>
	<path clip-path="url(#SVGID_2_)" fill="#FFFFFF" d="M26.101,48.463h-1.705c-5.558,0-8.562-2.538-9.521-4.914l-0.624-1.604
		c-0.052-0.197-0.104-0.395-0.157-0.591c-0.328-1.221-0.667-2.481-0.667-4.498v-2.992c0-2.939,0.49-4.335,2.138-5.493v5.25
		c0,0.395,0.318,0.713,0.713,0.713s0.713-0.318,0.713-0.713V13.868c0-1.092,0.75-1.916,1.746-1.916c0.991,0,1.739,0.824,1.739,1.916
		v12.257v4.208v1.653c0,0.394,0.319,0.713,0.714,0.713c0.394,0,0.713-0.319,0.713-0.713v-1.653v-4.208
		c0-1.093,0.748-1.917,1.741-1.917c0.992,0,1.74,0.824,1.74,1.917v1.747v2.461v1.653c0,0.394,0.319,0.713,0.714,0.713
		c0.393,0,0.713-0.319,0.713-0.713v-1.653v-2.461c0-1.093,0.748-1.917,1.741-1.917c0.994,0,1.744,0.824,1.744,1.917v1.754v0.707
		v1.653c0,0.394,0.319,0.713,0.713,0.713s0.713-0.319,0.713-0.713v-1.653v-0.707c0-1.065,0.749-1.84,1.781-1.84
		c0.995,0,1.776,0.875,1.776,1.994l0.035,10.192C35.313,46.24,30.351,48.463,26.101,48.463 M15.563,26.69
		C12.569,28.41,12,30.487,12,33.863v2.993c0,2.205,0.38,3.62,0.716,4.867c0.057,0.207,0.111,0.41,0.164,0.616l0.667,1.732
		c0,0.002,0.001,0.002,0.002,0.004c0,0.001,0,0.003,0.001,0.004c1.132,2.81,4.576,5.811,10.846,5.811h1.705
		c6.463,0,10.639-3.894,10.639-9.919V39.97v-0.002l-0.033-10.19c0-1.885-1.438-3.418-3.204-3.418c-0.724,0-1.373,0.222-1.897,0.602
		c-0.367-1.418-1.576-2.433-3.053-2.433c-0.707,0-1.35,0.235-1.872,0.633c-0.383-1.39-1.579-2.38-3.036-2.38
		c-0.648,0-1.244,0.198-1.742,0.537v-4.476v-1.735v-3.24c0-1.874-1.39-3.342-3.166-3.342c-1.778,0-3.17,1.468-3.17,3.342
		L15.563,26.69z"/>
	
		<path clip-path="url(#SVGID_2_)" fill="none" stroke="#FFFFFF" stroke-width="1.506" stroke-linecap="round" stroke-linejoin="round" d="
		M24.802,14.26c0-3.327-2.697-6.024-6.023-6.024c-3.328,0-6.025,2.697-6.025,6.024"/>
</g>
</svg>
