<?xml version="1.0" encoding="utf-8"?>
<!-- Generator: Adobe Illustrator 16.0.0, SVG Export Plug-In . SVG Version: 6.00 Build 0)  -->
<!DOCTYPE svg PUBLIC "-//W3C//DTD SVG 1.1//EN" "http://www.w3.org/Graphics/SVG/1.1/DTD/svg11.dtd">
<svg version="1.1" xmlns="http://www.w3.org/2000/svg" xmlns:xlink="http://www.w3.org/1999/xlink" x="0px" y="0px"
	 width="147.389px" height="142.254px" viewBox="0 0 147.389 142.254" enable-background="new 0 0 147.389 142.254"
	 xml:space="preserve">
<g id="Layer_1">
	<g>
		<path fill="#FFFFFF" d="M116.485,44.371c0.048,0.971,0.072,1.893,0.072,2.865c0,29.084-22.153,62.587-62.624,62.587
			c-12.43,0-24.011-3.593-33.733-9.856c1.711,0.193,3.447,0.291,5.244,0.291c10.319,0,19.786-3.496,27.324-9.419
			c-9.626-0.146-17.759-6.507-20.562-15.296c1.348,0.291,2.731,0.438,4.152,0.438c2.014,0,3.956-0.292,5.79-0.778
			c-10.063-2.039-17.65-10.925-17.65-21.607v-0.243c2.962,1.651,6.361,2.622,9.966,2.768c-5.912-3.981-9.796-10.73-9.796-18.354
			c0-4.03,1.104-7.817,2.986-11.071c10.84,13.304,27.069,22.092,45.374,23.015c-0.375-1.603-0.569-3.302-0.569-5.001
			c0-12.188,9.844-22.044,21.996-22.044c6.335,0,12.053,2.67,16.059,6.943c5.026-0.971,9.723-2.816,13.996-5.341
			c-1.663,5.147-5.147,9.468-9.687,12.187c4.443-0.534,8.69-1.699,12.648-3.447C124.509,37.427,120.782,41.263,116.485,44.371"/>
	</g>
</g>
<g id="Layer_2">
</g>
</svg>
