<?xml version="1.0" encoding="utf-8"?>
<!-- Generator: Adobe Illustrator 16.0.0, SVG Export Plug-In . SVG Version: 6.00 Build 0)  -->
<!DOCTYPE svg PUBLIC "-//W3C//DTD SVG 1.1//EN" "http://www.w3.org/Graphics/SVG/1.1/DTD/svg11.dtd">
<svg version="1.1" xmlns="http://www.w3.org/2000/svg" xmlns:xlink="http://www.w3.org/1999/xlink" x="0px" y="0px"
	 width="147.389px" height="142.254px" viewBox="0 0 147.389 142.254" enable-background="new 0 0 147.389 142.254"
	 xml:space="preserve">
<g id="Layer_1">
	<g>
		<path fill="#FFFFFF" d="M83.217,46.75c0.024,4.795-6.311,7.774-9.896,4.493c-3.698-2.625-2.663-9.087,1.704-10.45
			C78.9,39.278,83.494,42.56,83.217,46.75 M53.18,47.961c-0.846,4.14-6.412,6.108-9.642,3.382
			c-3.773-2.675-2.714-9.238,1.704-10.551C49.557,39.076,54.505,43.469,53.18,47.961 M86.321,28.778
			c-12.355-6.966-27.766-8.027-41.08-3.18c-8.734,3.129-16.635,8.985-21.532,16.912c-4.417,7.218-6.095,16.154-3.95,24.383
			c2.146,9.137,8.481,16.76,16.18,21.859c-1.477,4.189-2.891,8.431-4.24,12.671c4.859-2.524,9.667-5.149,14.525-7.724
			c5.87,1.867,12.002,2.776,18.123,2.574c-1.578-4.695-1.968-9.744-1.236-14.641c1.161-6.815,4.833-13.024,9.919-17.618
			c8.532-7.977,20.647-11.358,32.184-10.551C103.068,42.862,95.622,33.927,86.321,28.778"/>
		<path fill="#FFFFFF" d="M118.656,78.705c-1.237,2.928-5.604,3.584-7.75,1.363c-1.06-0.959-1.3-2.372-1.704-3.635
			c0.543-2.271,2.058-4.594,4.619-4.695C117.394,71.233,120.522,75.524,118.656,78.705 M94.903,78.301
			c-1.035,3.231-5.742,4.19-8.014,1.717c-2.499-2.271-1.527-7.017,1.754-8.027C92.291,70.427,96.481,74.615,94.903,78.301
			 M135.479,75.676c-3.016-6.814-8.708-12.267-15.297-15.598c-11.686-5.907-26.188-5.856-37.811,0.151
			c-8.09,4.14-14.842,11.561-16.748,20.597c-1.577,6.664-0.164,13.833,3.357,19.639c5.275,8.733,14.754,14.285,24.66,16.053
			c7.131,1.514,14.553,0.656,21.48-1.413c4.152,1.615,7.876,4.29,11.939,6.209c-1.035-3.534-2.146-6.967-3.357-10.399
			c4.519-3.231,8.658-7.27,11.132-12.268C138.507,91.578,138.735,82.896,135.479,75.676"/>
	</g>
</g>
<g id="Layer_2">
</g>
</svg>
