<?xml version="1.0" encoding="utf-8"?>
<!-- Generator: Adobe Illustrator 16.0.0, SVG Export Plug-In . SVG Version: 6.00 Build 0)  -->
<!DOCTYPE svg PUBLIC "-//W3C//DTD SVG 1.1//EN" "http://www.w3.org/Graphics/SVG/1.1/DTD/svg11.dtd">
<svg version="1.1" xmlns="http://www.w3.org/2000/svg" xmlns:xlink="http://www.w3.org/1999/xlink" x="0px" y="0px"
	 width="147.389px" height="142.254px" viewBox="0 0 147.389 142.254" enable-background="new 0 0 147.389 142.254"
	 xml:space="preserve">
<g id="Layer_1">
	<g>
		<g>
			<path fill="#FFFFFF" d="M116.483,50.481c-6.279-6.962-15.562-9.614-24.143-7.801c-1.97,0.409-3.237,2.379-2.808,4.349
				c0.429,1.97,2.34,3.237,4.349,2.809c6.104-1.287,12.695,0.604,17.161,5.558s5.675,11.72,3.764,17.648
				c-0.624,1.95,0.448,3.998,2.359,4.622c1.931,0.604,3.998-0.448,4.622-2.359v-0.02C124.479,66.96,122.782,57.443,116.483,50.481"
				/>
			<path fill="#FFFFFF" d="M106.811,59.198c-3.042-3.394-7.566-4.681-11.739-3.783c-1.716,0.351-2.809,2.028-2.457,3.725
				c0.39,1.716,2.066,2.809,3.764,2.438c2.048-0.429,4.251,0.195,5.753,1.853c1.501,1.658,1.911,3.92,1.248,5.929
				c-0.526,1.657,0.39,3.433,2.048,3.959c1.657,0.546,3.432-0.371,3.978-2.028C110.711,67.232,109.893,62.592,106.811,59.198z"/>
			<path fill="#FFFFFF" d="M69.047,84.364c-7.547-1.989-16.089,1.795-19.365,8.425c-3.334,6.786-0.098,14.314,7.508,16.811
				c7.908,2.535,17.21-1.365,20.447-8.698C80.854,93.765,76.857,86.393,69.047,84.364 M63.284,101.682
				c-1.541,2.457-4.817,3.511-7.294,2.379c-2.457-1.092-3.179-3.938-1.638-6.318c1.521-2.379,4.69-3.432,7.147-2.418
				C63.996,96.377,64.776,99.186,63.284,101.682 M68.335,95.207c-0.565,0.937-1.784,1.365-2.74,1.015
				c-0.955-0.43-1.238-1.482-0.722-2.418c0.565-0.897,1.746-1.365,2.682-0.976C68.511,93.141,68.871,94.232,68.335,95.207"/>
		</g>
		<path fill="#FFFFFF" d="M99.186,79.479c-1.345-0.409-2.281-0.663-1.579-2.457c1.54-3.842,1.716-7.157,0.02-9.536
			c-3.101-4.427-11.594-4.193-21.364-0.117c0,0-3.052,1.326-2.271-1.072c1.492-4.837,1.277-8.873-1.062-11.214
			c-5.295-5.284-19.365,0.195-31.446,12.267c-9.029,9.049-14.284,18.614-14.284,26.883c0,15.874,20.33,25.508,40.201,25.508
			c26.054,0,43.391-15.133,43.391-27.186C110.789,85.301,104.666,81.176,99.186,79.479z M67.457,114.046
			c-15.854,1.56-29.554-5.617-30.598-15.991C35.846,87.602,47.868,77.919,63.723,76.34c15.874-1.561,29.555,5.597,30.607,16.021
			C95.344,102.773,83.312,112.485,67.457,114.046z"/>
	</g>
</g>
<g id="Layer_2">
</g>
</svg>
